<svg width="26" height="26" viewBox="0 0 26 26" fill="none" xmlns="http://www.w3.org/2000/svg">
<path d="M13.8801 0.0266113C20.4768 0.0266113 25.8742 5.42396 25.8742 12.0207V13.8947C25.8742 20.4915 20.4768 25.8888 13.8801 25.8888H12.0061C5.40931 25.8888 0.0119629 20.4915 0.0119629 13.8947V12.0207C0.0119629 5.42396 5.40931 0.0266113 12.0061 0.0266113H13.8801ZM13.1788 6.52683L13.012 6.52661C11.6224 6.52661 10.2328 6.57254 10.2328 6.57254C8.20322 6.57254 6.55789 8.21787 6.55789 10.2475C6.55789 10.2475 6.51571 11.4406 6.51219 12.7214L6.51196 12.8888C6.51196 14.3228 6.55789 15.8058 6.55789 15.8058C6.55789 17.8354 8.20322 19.4807 10.2328 19.4807C10.2328 19.4807 11.532 19.5266 12.8742 19.5266C14.3081 19.5266 15.8371 19.4807 15.8371 19.4807C17.8667 19.4807 19.466 17.8813 19.466 15.8517C19.466 15.8517 19.512 14.3854 19.512 12.9807L19.5111 12.651C19.5049 11.3907 19.466 10.2015 19.466 10.2015C19.466 8.17191 17.8666 6.57254 15.837 6.57254C15.837 6.57254 14.5141 6.53021 13.1788 6.52683ZM13.012 7.69658C14.1514 7.69658 15.6124 7.73426 15.6124 7.73426C17.2767 7.73426 18.3043 8.76183 18.3043 10.4261C18.3043 10.4261 18.342 11.8622 18.342 12.9889C18.342 14.1408 18.3043 15.627 18.3043 15.627C18.3043 17.2913 17.2767 18.3189 15.6124 18.3189C15.6124 18.3189 14.3204 18.3505 13.1994 18.3558L12.899 18.3566C11.7984 18.3566 10.4574 18.3189 10.4574 18.3189C8.79318 18.3189 7.71965 17.2453 7.71965 15.5811C7.71965 15.5811 7.68196 14.0894 7.68196 12.9136C7.68196 11.813 7.71965 10.4261 7.71965 10.4261C7.71965 8.76183 8.7932 7.73426 10.4574 7.73426C10.4574 7.73426 11.8725 7.69658 13.012 7.69658ZM13.0119 9.69691C11.173 9.69691 9.68227 11.1876 9.68227 13.0266C9.68227 14.8655 11.173 16.3562 13.0119 16.3562C14.8509 16.3562 16.3416 14.8655 16.3416 13.0266C16.3416 11.1876 14.8509 9.69691 13.0119 9.69691ZM13.0119 10.8599C14.2086 10.8599 15.1786 11.8299 15.1786 13.0266C15.1786 14.2232 14.2086 15.1932 13.0119 15.1932C11.8153 15.1932 10.8453 14.2232 10.8453 13.0266C10.8453 11.8299 11.8153 10.8599 13.0119 10.8599ZM16.5009 8.77291C16.0566 8.77291 15.6964 9.13491 15.6964 9.58143C15.6964 10.028 16.0566 10.3899 16.5009 10.3899C16.9452 10.3899 17.3054 10.028 17.3054 9.58143C17.3054 9.13488 16.9452 8.77291 16.5009 8.77291Z" fill="#818980"/>
</svg>
