<svg width="26" height="26" viewBox="0 0 26 26" fill="none" xmlns="http://www.w3.org/2000/svg">
<path d="M17.3334 13.975V18.525C17.3334 22.3166 15.8167 23.8333 12.0251 23.8333H7.47508C3.68341 23.8333 2.16675 22.3166 2.16675 18.525V13.975C2.16675 10.1833 3.68341 8.66663 7.47508 8.66663H12.0251C15.8167 8.66663 17.3334 10.1833 17.3334 13.975Z" fill="#818980"/>
<path d="M18.5247 2.16663H13.9747C10.6347 2.16663 9.06822 3.35189 8.74189 6.21722C8.67362 6.81667 9.17008 7.31246 9.7734 7.31246H12.0247C16.5747 7.31246 18.6872 9.42496 18.6872 13.975V16.2262C18.6872 16.8295 19.1829 17.326 19.7825 17.2578C22.6478 16.9314 23.833 15.365 23.833 12.025V7.47496C23.833 3.68329 22.3164 2.16663 18.5247 2.16663Z" fill="#818980"/>
</svg>
