<svg width="26" height="26" viewBox="0 0 26 26" fill="none" xmlns="http://www.w3.org/2000/svg">
<path d="M13 0C5.81953 0 0 5.81953 0 13C0 20.1805 5.81953 26 13 26C20.1805 26 26 20.1805 26 13C26 5.81953 20.1805 0 13 0ZM15.8691 10.7961L15.7219 12.741H13.7262V19.4949H11.2074V12.741H9.86172V10.7961H11.2074V9.49102C11.2074 8.91719 11.2227 8.02852 11.6391 7.475C12.0809 6.89102 12.6852 6.49492 13.7262 6.49492C15.4223 6.49492 16.1332 6.73867 16.1332 6.73867L15.798 8.7293C15.798 8.7293 15.2395 8.5668 14.7164 8.5668C14.1934 8.5668 13.7262 8.75469 13.7262 9.27773V10.7961H15.8691Z" fill="#818980"/>
</svg>
